<svg id="Layer_1" data-name="Layer 1" xmlns="http://www.w3.org/2000/svg" viewBox="0 0 576 576"><defs><style>.cls-1,.cls-2,.cls-3{font-size:300px;font-family:NiagaraEngraved-Reg, Niagara Engraved;}.cls-1{fill:#f15a24;}.cls-2{fill:#ed1c24;}.cls-3,.cls-4{fill:#662d91;}</style></defs><title>Artboard 1</title><text class="cls-1" transform="translate(40.62 188.79) rotate(45)">L</text><text class="cls-2" transform="translate(316.56 463.76) rotate(45)">W </text><text class="cls-3" transform="translate(302.65 421.59) rotate(-45)">84</text><path class="cls-4" d="M248.1,39.51C265.71,41.85,283,46.32,300,51.78a388.34,388.34,0,0,1,49.78,20.1c4,2,8,4,12,6.18s7.88,4.36,11.79,6.59c7.74,4.62,15.39,9.42,22.8,14.6,1.88,1.25,3.72,2.58,5.55,3.9l5.52,3.95c3.6,2.75,7.27,5.42,10.83,8.24l5.36,4.2c1.78,1.42,3.5,2.9,5.27,4.34,3.54,2.85,6.95,5.88,10.38,8.89a328.4,328.4,0,0,1,37.66,38.87c1.45,1.72,2.85,3.5,4.22,5.29s2.79,3.54,4.13,5.36c2.66,3.64,5.35,7.25,7.87,11s5.1,7.43,7.54,11.22c1.23,1.88,2.41,3.8,3.62,5.7s2.4,3.81,3.55,5.74c2.32,3.86,4.56,7.76,6.79,11.66s4.32,7.89,6.39,11.87q1.56,3,3,6c1,2,2,4,3,6,1.9,4.06,3.78,8.14,5.56,12.26q5.34,12.34,9.7,25.09a208.19,208.19,0,0,1,7.19,25.93.52.52,0,0,1-.4.6.53.53,0,0,1-.53-.22v0c-19.4-29.82-39.64-58.06-61-85.17-10.64-13.59-21.78-26.69-32.93-39.71l-16.73-19.53L429.4,161l-4.26-4.83c-1.42-1.62-2.84-3.23-4.29-4.77a316.16,316.16,0,0,0-37.25-35l-5-4-5.13-3.87c-3.4-2.63-6.92-5.09-10.39-7.63C356,96,348.91,91.09,341.6,86.49s-14.72-9.08-22.26-13.38L313.65,70l-5.75-3.08q-5.76-3.06-11.62-6-11.73-5.81-23.81-11c-4-1.7-8.08-3.39-12.18-5s-8.23-3.1-12.39-4.48h0a.5.5,0,0,1-.32-.63A.51.51,0,0,1,248.1,39.51Z"/><path class="cls-4" d="M39.49,248.9c7.11,16.3,14.86,32,23.07,47.3,4.12,7.64,8.33,15.2,12.72,22.61,2.22,3.7,4.38,7.41,6.68,11s4.55,7.28,6.86,10.88c1.19,1.78,2.37,3.57,3.52,5.37s2.39,3.54,3.58,5.31,2.4,3.53,3.64,5.26l3.65,5.25c2.53,3.43,5,6.89,7.56,10.27l3.82,5.09,3.88,5c1.27,1.7,2.57,3.36,3.9,5s2.59,3.35,3.9,5c2.7,3.26,5.24,6.64,8,9.89,1.35,1.63,2.69,3.26,4,4.92s2.75,3.22,4.1,4.86c2.69,3.27,5.5,6.44,8.3,9.64a449.12,449.12,0,0,0,36.27,36.76c3.19,2.91,6.47,5.72,9.72,8.57s6.57,5.62,9.92,8.37q10,8.28,20.27,16.29c13.66,10.73,27.82,20.91,42.34,30.64q10.9,7.28,22.14,14.13c7.5,4.56,15.09,9,22.88,13.11h0a.51.51,0,0,1,.21.68.53.53,0,0,1-.59.25c-17-5.08-33.47-11.89-49.6-19.42a499.08,499.08,0,0,1-47.09-25.38c-7.6-4.7-15.14-9.53-22.45-14.69S180.13,480.53,173,475.05,159,463.9,152,458.19c-1.75-1.41-3.44-2.89-5.16-4.35l-5.15-4.37L136.61,445c-1.7-1.48-3.38-3-5-4.56a263.65,263.65,0,0,1-36.4-40.81L91.24,394c-1.29-1.88-2.5-3.81-3.75-5.72l-1.86-2.86c-.61-1-1.18-1.95-1.77-2.92l-3.52-5.85c-2.25-4-4.56-7.87-6.63-11.92s-4.2-8.05-6.16-12.13c-1-2.05-1.92-4.12-2.87-6.17s-1.9-4.11-2.77-6.2c-1.8-4.15-3.49-8.35-5.14-12.55Q51.93,315,48.14,302.06t-6.33-26.23a186.08,186.08,0,0,1-3.3-26.73.5.5,0,0,1,.49-.52.49.49,0,0,1,.48.3Z"/></svg>